<svg xmlns="http://www.w3.org/2000/svg" fill="none" viewBox="0 0 1024 1024"><title>Argus</title><path fill="#2343f5" d="M628 100c103.61 0 155.41 0 194.99 20.16a185 185 0 0 1 80.85 80.85C924 240.58 924 292.39 924 396v232c0 103.61 0 155.41-20.16 194.99a185 185 0 0 1-80.85 80.85C783.42 924 731.61 924 628 924H396c-103.61 0-155.41 0-194.99-20.16a185 185 0 0 1-80.85-80.85C100 783.42 100 731.61 100 628V396c0-103.61 0-155.41 20.16-194.99a185 185 0 0 1 80.85-80.85C240.58 100 292.39 100 396 100Z"/><g transform="matrix(24 0 0 24 224 224)"><path fill="#1b30e5" d="M20.1 3.4a.5.5 0 0 1 .5.5V12A8.6 8.6 0 1 1 12 3.4Z"/><circle cx="12.636" cy="11.364" r="4.25" fill="#2343f5"/><path stroke="#fff" stroke-linejoin="round" stroke-width="1.75" d="M20.1 3.4a.5.5 0 0 1 .5.5V12A8.6 8.6 0 1 1 12 3.4Z"/><circle cx="12.636" cy="11.364" r="4.25" stroke="#fff" stroke-width="1.75"/><circle cx="13.414" cy="10.586" r="2" fill="#fff"/></g></svg>